<svg xmlns="http://www.w3.org/2000/svg" width="91" height="18" fill="none" viewBox="0 0 91 18"><path fill="#fff" fill-rule="evenodd" d="M16.85 0h-5.2l-4.4 8.8 3.6 1.2-.8 8 7.6-11.6-3.6-1.2zM2.815 14.777H0V3.128h7.044v2.444h-4.23v2.444h3.507v2.444H2.815zm21.587 0-.708-2.443h-3.586l-.692 2.443H16.52l3.908-11.649h2.96l3.908 11.65zm-2.477-8.993h-.032s-.258 1.27-.467 2.004l-.66 2.265h2.269l-.644-2.265c-.209-.733-.466-2.004-.466-2.004m9.825 9.189c-2.702 0-4.198-1.662-4.198-1.662l1.48-2.167s1.302 1.206 2.75 1.206c.579 0 1.206-.228 1.206-.929 0-.53-.76-.85-1.7-1.246-1.509-.635-3.479-1.464-3.479-3.674 0-2.15 1.786-3.568 4.07-3.568 2.476 0 3.699 1.32 3.699 1.32l-1.19 2.33s-1.158-1.027-2.542-1.027c-.579 0-1.222.26-1.222.912 0 .567.775.876 1.726 1.255 1.506.6 3.453 1.375 3.453 3.633 0 1.939-1.464 3.617-4.053 3.617m5.804-.196h2.815v-4.562h4.181v4.562h2.815V3.128H44.55v4.66h-4.18v-4.66h-2.815zm20.175.246c-2.698 0-4.192-1.662-4.192-1.662l1.477-2.167s1.301 1.206 2.747 1.206c.578 0 1.204-.228 1.204-.929 0-.53-.76-.85-1.697-1.246-1.507-.635-3.474-1.464-3.474-3.674 0-2.15 1.783-3.568 4.063-3.568 2.473 0 3.694 1.32 3.694 1.32l-1.189 2.33s-1.156-1.027-2.537-1.027c-.578 0-1.22.26-1.22.912 0 .568.774.877 1.723 1.255 1.504.6 3.448 1.376 3.448 3.633 0 1.939-1.462 3.617-4.047 3.617m11.614-2.64.708 2.444h2.895l-1.954-5.824-1.955-5.825h-2.959l-1.954 5.825-1.954 5.824h2.895l.692-2.443zm-1.801-6.55h.032s.257 1.272.466 2.005l.644 2.265h-2.268l.66-2.265c.208-.733.466-2.004.466-2.004m6.567-2.631v11.561h7.57v-2.34h-4.842V3.201zm16.089.041v2.258h-4.89v2.366l3.927.019v2.258h-3.89v2.366h5.107v2.294H82.8V3.243z" clip-rule="evenodd"/><path fill="#FFCA11" d="M16.85 0h-5.2l-4.4 8.8 3.6 1.2-.8 8 7.6-11.6-3.6-1.2z"/></svg>